<svg width="161" height="90" viewBox="0 0 161 90" fill="none" xmlns="http://www.w3.org/2000/svg">
<g clip-path="url(#clip0_2589_14051)">
<path d="M7.47066 89.4329C8.36656 88.2264 8.36656 86.3801 8.36656 84.781V68.5575H2.9189C1.97965 68.5575 1.02595 68.6592 0 69.3425L0.823651 66.7839H21.4727C20.7791 68.3103 18.2648 68.5575 16.5886 68.5575H12.0658V84.781C12.0658 86.3801 12.0658 88.2264 12.9617 89.4329H7.45621" fill="#231F20"/>
<path d="M23.568 78.1521C25.5766 78.1521 26.6459 78.1522 26.6459 76.8002C26.6459 75.4482 25.5332 74.0963 23.5247 74.0963C20.9381 74.0963 19.8255 76.2623 19.3342 78.1376H23.568M19.0885 79.1988C19.0018 79.8675 18.9296 80.4345 18.9296 81.1904C18.9296 84.4904 20.6491 87.6595 24.9263 87.6595C26.9349 87.6595 28.9145 86.9472 29.8972 85.9877V86.3802C29.8972 88.2701 26.4436 90 23.4091 90C18.0337 90 15.4905 85.8133 15.4905 81.5103C15.4905 76.8874 18.4527 73.0205 24.0738 73.0205C28.0186 73.0205 30.3596 75.2592 30.3596 77.5707C30.3596 79.1988 29.0012 79.1988 26.458 79.1988H19.103H19.0885Z" fill="#231F20"/>
<path d="M33.6252 79.286C33.6252 76.7711 33.6252 74.3143 32.5559 73.5729C34.0732 73.5438 35.5182 73.3985 36.0095 73.3985C36.7464 73.3985 36.2985 75.172 36.7464 75.172C36.9487 75.172 38.307 73.0496 40.7346 73.0496C42.1652 73.0496 42.9888 73.5438 42.9888 74.4015C42.9888 75.0702 42.5842 75.579 41.5583 75.579C40.778 75.579 39.9543 75.4773 38.9717 75.4773C36.9198 75.4773 36.6742 76.7129 36.6742 78.283V85.5952C36.6742 86.9035 36.6742 88.43 37.4111 89.4621H32.9027C33.6397 88.43 33.6397 86.9035 33.6397 85.5952V79.3151" fill="#231F20"/>
<path d="M45.7343 79.286C45.7343 76.7711 45.7343 74.3143 44.665 73.5729C46.1823 73.5438 47.6273 73.3985 48.1186 73.3985C48.8555 73.3985 48.4076 75.172 48.8555 75.172C49.0578 75.172 50.4161 73.0496 52.8438 73.0496C54.2743 73.0496 55.098 73.5438 55.098 74.4015C55.098 75.0702 54.6934 75.579 53.653 75.579C52.8727 75.579 52.049 75.4773 51.0664 75.4773C49.0145 75.4773 48.7688 76.7129 48.7688 78.283V85.5952C48.7688 86.9035 48.7688 88.43 49.5058 89.4621H44.9974C45.7343 88.43 45.7343 86.9035 45.7343 85.5952V79.3151" fill="#231F20"/>
<path d="M63.6379 78.1521C65.6464 78.1521 66.7157 78.1522 66.7157 76.8002C66.7157 75.4482 65.6031 74.0963 63.5945 74.0963C61.008 74.0963 59.8953 76.2623 59.404 78.1376H63.6379M59.1584 79.1988C59.0717 79.8675 58.9994 80.4345 58.9994 81.1904C58.9994 84.4904 60.719 87.6595 64.9962 87.6595C67.0047 87.6595 68.9844 86.9472 69.967 85.9877V86.3802C69.967 88.2701 66.5134 90 63.4789 90C58.1035 90 55.5603 85.8133 55.5603 81.5103C55.5603 76.8874 58.5226 73.0205 64.1436 73.0205C68.0885 73.0205 70.4294 75.2592 70.4294 77.5707C70.4294 79.1988 69.0711 79.1988 66.5279 79.1988H59.1728H59.1584Z" fill="#231F20"/>
<path d="M80.4289 75.2301C77.5533 75.2301 75.906 77.3671 75.906 80.7397V83.4727C75.906 86.322 76.2817 88.7352 80.0965 88.7352C84.2871 88.7352 85.183 84.8247 85.183 81.8736C85.183 78.9226 83.868 75.2301 80.4144 75.2301M72.8571 68.7029C72.8571 67.2492 72.5681 65.8681 71.4988 65.1558L75.8916 64.5889V75.6662C75.8916 75.6662 75.9349 75.8407 76.0939 75.8407C76.4696 75.8407 78.4781 73.035 81.845 73.035C86.7725 73.035 88.4631 77.5415 88.4631 81.2049C88.4631 85.9586 85.8332 90.0145 79.7931 90.0145C77.1198 90.0145 75.6459 89.4475 72.6837 89.4475C72.7993 86.4965 72.8426 83.5163 72.8426 80.5362V68.7174L72.8571 68.7029Z" fill="#231F20"/>
<path d="M99.0694 88.7352C102.928 88.7352 103.954 85.4353 103.954 82.4842C103.954 78.3266 102.48 74.3143 98.1157 74.3143C94.2575 74.3143 93.2316 77.6142 93.2316 80.5653C93.2316 84.723 94.7055 88.7352 99.0694 88.7352ZM97.7111 90.0145C92.0467 90.0145 89.7925 86.0022 89.7925 82.1353C89.7925 76.6257 93.3183 73.0496 99.474 73.0496C105.138 73.0496 107.393 77.0618 107.393 80.9287C107.393 86.4383 103.867 90.0145 97.7111 90.0145Z" fill="#231F20"/>
<path d="M113.317 73.3839V74.6196C113.317 74.9104 113.274 75.1866 113.563 75.1866C113.938 75.1866 115.745 73.0205 118.938 73.0205C122.132 73.0205 123.952 74.3289 123.952 77.6288V85.5807C123.952 86.889 123.952 88.4154 124.603 89.4185H120.903V79.6931C120.903 77.4253 120.528 74.9394 117.247 74.9394C113.967 74.9394 113.389 77.4544 113.389 79.8821V85.5952C113.389 86.9036 113.389 88.43 114.126 89.433H109.603C110.34 88.4445 110.34 86.9181 110.34 85.5952V77.1491C110.34 75.6954 110.34 74.2998 109.473 73.602L113.288 73.3839" fill="#231F20"/>
<path d="M131.495 73.3839V74.6196C131.495 74.9104 131.452 75.1866 131.741 75.1866C132.117 75.1866 133.923 73.0205 137.116 73.0205C140.31 73.0205 142.13 74.3289 142.13 77.6288V85.5807C142.13 86.889 142.13 88.4154 142.781 89.4185H139.082V79.6931C139.082 77.4253 138.72 74.9394 135.426 74.9394C132.131 74.9394 131.568 77.4544 131.568 79.8821V85.5952C131.568 86.9036 131.568 88.43 132.304 89.433H127.796C128.533 88.4445 128.533 86.9181 128.533 85.5952V77.1491C128.533 75.6954 128.533 74.2998 127.666 73.602L131.481 73.3839" fill="#231F20"/>
<path d="M153.705 78.1521C155.714 78.1521 156.783 78.1522 156.783 76.8002C156.783 75.4482 155.67 74.0963 153.662 74.0963C151.075 74.0963 149.962 76.2623 149.471 78.1376H153.705M149.225 79.1988C149.139 79.8675 149.067 80.4345 149.067 81.1904C149.067 84.4904 150.786 87.6595 155.063 87.6595C157.072 87.6595 159.052 86.9472 160.034 85.9877V86.3802C160.034 88.2701 156.581 90 153.546 90C148.171 90 145.627 85.8133 145.627 81.5103C145.627 76.8874 148.59 73.0205 154.211 73.0205C158.156 73.0205 160.497 75.2592 160.497 77.5707C160.497 79.1988 159.138 79.1988 156.595 79.1988H149.24H149.225Z" fill="#231F20"/>
<path d="M148.85 59.3554C130.99 53.3951 106.699 49.9644 80.689 49.9644C54.679 49.9644 30.1573 53.4678 12.3115 59.4136C31.5879 54.6163 55.6905 53.1335 80.7179 53.1335C105.745 53.1335 129.573 54.5436 148.85 59.3409" fill="#04B14B"/>
<path d="M75.1546 13.1851C76.4551 12.8363 74.8078 10.2632 73.4351 10.2922C73.4351 10.2922 73.5651 13.6213 75.1546 13.1851Z" fill="#0071BC"/>
<path d="M86.1365 13.0835C87.7549 13.4179 87.6827 10.0889 87.6827 10.0889C86.3099 10.1325 84.8216 12.8073 86.1365 13.0835Z" fill="#0071BC"/>
<path d="M89.6336 9.62374C89.229 9.62374 88.7377 9.71096 88.3475 9.78365V9.92902C88.5787 11.9206 87.7262 13.6942 86.4979 13.825C86.05 13.8686 85.6165 13.7087 85.2408 13.3889L85.2119 13.3598C84.5327 12.6766 84.9084 11.2664 86.0644 10.2052C86.5557 9.75457 87.0326 9.44929 87.5528 9.28938L87.5961 9.26031V9.23123C86.6858 6.3674 83.8825 4.28857 80.559 4.28857C77.2355 4.28857 74.2588 6.4837 73.4207 9.44929C73.9409 9.58013 74.49 9.87087 75.0102 10.2925C76.2095 11.281 76.6719 12.6766 76.0506 13.4034V13.4325C75.6604 13.7668 75.2414 13.9558 74.7934 13.9413C73.5652 13.8831 72.6404 12.2259 72.756 10.2343H72.6982C71.6289 10.0017 70.4295 10.0889 69.2591 10.525C66.8026 11.4409 65.5454 13.6069 65.8922 15.6422H96.1506C95.8905 12.2695 93.0727 9.62374 89.6191 9.62374" fill="#0071BC"/>
<path d="M99.2283 0H61.9617V15.6566H65.1551C64.765 13.3306 66.2533 10.8448 69.0855 9.78356C70.2849 9.3329 71.5276 9.23114 72.6547 9.37651C73.0593 5.87304 76.4695 3.14004 80.501 3.14004C84.5326 3.14004 87.7694 5.74221 88.2318 9.18753L88.2607 9.15845C88.6364 9.05669 89.2722 8.89678 90.1681 8.89678C93.9974 8.89678 97.133 11.8915 97.3209 15.6566H99.2572L99.2138 0" fill="#0071BC"/>
<path d="M97.6822 32.0981L98.159 32.3889C96.1505 38.7271 87.5382 34.0316 82.2062 30.9642V33.4937C82.2062 33.4937 82.3507 33.5664 82.4085 33.61C89.8358 37.9857 93.246 37.6368 93.246 37.6368C95.7314 37.6659 97.6822 36.75 99.2428 35.2091L99.2717 18.7529H96.7863C95.717 21.0789 93.1593 22.4599 90.226 22.4599C89.9948 22.4599 89.778 22.4599 89.5613 22.4309L89.6046 21.9947C92.2345 21.9947 94.5176 20.8027 95.558 18.7675H82.1628V28.9581C88.1307 32.2871 95.2979 38.0148 97.6677 32.1126" fill="#FDB932"/>
<path d="M68.6377 34.8893L68.8689 35.3254C68.8689 35.3254 71.6433 32.3598 78.6082 36.4593C78.7961 36.5756 78.9117 36.6628 79.0851 36.7936V35.0782C71.0797 31.4585 68.6377 34.8893 68.6377 34.8893Z" fill="white"/>
<path d="M96.9019 40.748L96.5985 40.3845C93.275 42.7832 88.203 40.1956 82.2207 37.0991V39.0762C87.9574 42.0418 93.5495 43.3937 96.9019 40.7625" fill="white"/>
<path d="M72.1634 27.5044L72.3079 28.0132C72.3079 28.0132 75.1834 27.5917 79.0705 28.9291V27.3155C74.9811 26.3415 72.1489 27.519 72.1489 27.519" fill="white"/>
<path d="M98.1734 32.3889L97.6965 32.0982C95.3267 38.0148 88.1595 32.2726 82.1917 28.9436L82.2206 30.9497C87.5671 34.0171 96.1648 38.7272 98.1734 32.3744" fill="white"/>
<path d="M70.733 30.4991C66.9471 31.2114 64.3461 34.1915 64.8229 37.0118C65.242 39.5267 67.5395 41.6927 70.9064 40.1082L70.7185 39.6866C67.7707 40.835 65.82 39.0906 65.4876 37.0408C65.0975 34.6567 67.5106 32.1272 70.9931 31.4585C70.9931 31.4585 74.2588 30.7171 79.0995 32.9704V31.5312C73.9698 29.6559 70.7474 30.4991 70.7474 30.4991" fill="white"/>
<path d="M93.3472 37.637C93.3472 37.637 89.8503 37.9859 82.423 33.6102C82.3508 33.5666 82.2785 33.5375 82.2207 33.4939V35.2965C88.8822 38.989 93.4195 38.6255 93.4195 38.6255C95.717 38.6982 97.5088 37.6952 99.2573 36.0524V35.1947C97.6967 36.7357 95.876 37.6225 93.3472 37.6225" fill="white"/>
<path d="M86.1365 13.0835C84.8216 12.8073 86.3099 10.147 87.6827 10.0888C87.6827 10.0888 87.7549 13.4178 86.1365 13.0835ZM75.1401 13.1853C73.5506 13.6068 73.4205 10.2923 73.4205 10.2923C74.7933 10.2633 76.4406 12.8364 75.1401 13.1853ZM90.2403 8.88223C89.3444 8.88223 88.7231 9.0276 88.3474 9.12936H88.3185C87.8561 5.69858 84.5615 3.12549 80.5733 3.12549C76.5851 3.12549 72.9726 5.81488 72.6691 9.36196C71.542 9.21659 70.3138 9.31835 69.1 9.75447C66.2389 10.8011 64.7505 13.3306 65.1551 15.6566H65.8776C65.5308 13.6214 66.788 11.4408 69.2445 10.5249C70.4149 10.0888 71.6143 10.0016 72.6836 10.2197H72.7414C72.6402 12.2258 73.5506 13.883 74.7788 13.9412C75.2268 13.9703 75.6458 13.7813 76.0071 13.4324V13.4033C76.6573 12.691 76.1949 11.2954 74.9956 10.2923C74.4898 9.87076 73.9407 9.58002 73.4061 9.44918C74.2442 6.46905 77.1342 4.28847 80.5444 4.28847C83.9546 4.28847 86.6567 6.36729 87.5815 9.23112V9.2602L87.5382 9.28927C87.018 9.44918 86.5267 9.75447 86.0498 10.2051C84.9083 11.2663 84.5326 12.6764 85.1973 13.3597L85.2262 13.3888C85.6163 13.7086 86.0498 13.8685 86.4833 13.8249C87.7116 13.6941 88.5641 11.9205 88.3329 9.92891V9.79808H88.304C88.6942 9.72539 89.1855 9.63817 89.5901 9.63817C93.0437 9.63817 95.8759 12.2985 96.1215 15.6566H97.3642C97.1764 11.8914 94.0407 8.89677 90.2114 8.89677L90.2403 8.88223Z" fill="white"/>
<path d="M89.6334 21.9802L89.5901 22.4163C89.8068 22.4309 90.0236 22.4454 90.2548 22.4454C93.2604 22.4454 95.7313 21.0643 96.8151 18.7529H95.5869C94.5464 20.7736 92.2778 21.9802 89.6479 21.9802" fill="white"/>
<path d="M79.0849 36.7938C78.9837 36.6775 78.7959 36.5612 78.608 36.4594C71.6575 32.3599 68.8687 35.3255 68.8687 35.3255L68.6375 34.8894C68.6375 34.8894 71.094 31.4586 79.0849 35.0784V32.985C74.2441 30.7317 70.9784 31.4731 70.9784 31.4731C67.4959 32.1273 65.0828 34.6713 65.4729 37.0554C65.8197 39.1052 67.7705 40.8497 70.7038 39.7012L70.8917 40.1228C67.5104 41.7073 65.2273 39.5413 64.8082 37.0264C64.3314 34.1916 66.9324 31.226 70.7183 30.5137C70.7183 30.5137 73.9551 29.6705 79.0704 31.5458V28.9291C75.1689 27.5917 72.2933 28.0133 72.2933 28.0133L72.1488 27.5045C72.1488 27.5045 74.9666 26.327 79.0704 27.301V18.7385H61.9905V40.6025V42.1725C61.9905 42.1725 67.3659 45.3271 79.0704 45.3271V36.7938" fill="#F7931D"/>
<path d="M99.2716 42.2015C99.2716 42.2015 93.9251 45.2979 82.2206 45.2979L82.1917 42.1433V39.0614C87.9428 42.027 93.5494 43.379 96.9018 40.7477L96.5839 40.3843C93.2604 42.7829 88.1884 40.1953 82.2061 37.0989V35.2817C88.8676 38.9742 93.2315 38.5817 93.2315 38.5817C95.5435 38.6253 97.4942 37.6949 99.2571 36.0522V42.2015" fill="#FDB932"/>
</g>
<defs>
<clipPath id="clip0_2589_14051">
<rect width="160.482" height="90" fill="white"/>
</clipPath>
</defs>
</svg>
